<?xml version="1.0" encoding="UTF-8"?>
<svg viewBox="0 0 14 13.000004" xmlns="http://www.w3.org/2000/svg">
 <g transform="translate(-1238.5 -175.72)">
  <path d="m1238.5 175.72h14v13h-14z" fill="#fff"/>
 </g>
 <g transform="translate(-1074.5 -207.41)">
  <path d="m1074.5 207.41h14v13h-14z" fill="#fff"/>
  <g transform="translate(-1.4258e-5 -1.2153)">
   <path d="m1075.3 213.87c0.2799-1.1926 2.8028-3.4373 6.1772-3.4454 3.3374-8e-3 5.8822 2.4491 6.1772 3.4454" fill="none" stroke="#ff5e00" stroke-linecap="round" stroke-linejoin="round" stroke-width="1.6456"/>
   <path d="m1087.7 216.39c-0.2799 1.1926-2.8029 3.4373-6.1772 3.4454-3.3374 8e-3 -5.8822-2.449-6.1772-3.4454" fill="none" stroke="#9a9a9a" stroke-linecap="round" stroke-linejoin="round" stroke-width="1.6456"/>
   <path transform="matrix(1.9603 0 0 1.058 -1114.3 18.672)" d="m1121.9 185.36c0 1.6353-0.7816 2.961-1.7457 2.961s-1.7457-1.3257-1.7457-2.961 0.7816-2.961 1.7457-2.961 1.7457 1.3257 1.7457 2.961z" fill="#9a9a9a"/>
   <path d="m1080.72345,212.67354a.64095,.66056 0 0,1 .64095.66056v1.90661a.64095,.66056 0 0,1 -.64095.66056 .64095,.66056 0 0,1 -.64095-.66056v-1.90661a.64095,.66056 0 0,1 .64095-.66056" fill="#fff"/>
  </g>
 </g>
</svg>
